<?xml version="1.0" standalone="no"?>
<!DOCTYPE svg PUBLIC "-//W3C//DTD SVG 20010904//EN"
 "http://www.w3.org/TR/2001/REC-SVG-20010904/DTD/svg10.dtd">
<svg version="1.0" xmlns="http://www.w3.org/2000/svg"
 width="1570.000000pt" height="774.000000pt" viewBox="0 0 1570.000000 774.000000"
 preserveAspectRatio="xMidYMid meet">
<metadata>
Created by potrace 1.12, written by Peter Selinger 2001-2015
</metadata>
<g transform="translate(0.000000,774.000000) scale(0.100000,-0.100000)"
fill="#000000" stroke="none">
<path d="M7633 6315 c-87 -24 -154 -64 -227 -137 l-69 -69 7 -410 7 -410 -99
-192 c-213 -416 -476 -812 -681 -1028 l-60 -64 -16 23 -16 22 -971 0 c-1087 0
-1002 6 -1077 -75 -22 -24 -44 -56 -47 -72 -4 -15 35 -584 87 -1263 93 -1204
96 -1237 120 -1280 13 -24 41 -57 62 -74 l39 -31 889 -3 c877 -2 890 -2 929
18 67 34 88 78 96 202 l7 106 53 -43 c71 -58 128 -90 193 -109 49 -14 185 -16
1215 -16 1281 0 1234 -2 1371 64 247 118 389 350 371 606 -3 47 -10 99 -14
115 -8 27 -4 35 45 88 62 68 107 151 130 240 17 70 13 233 -8 299 -12 36 -12
37 44 98 144 159 190 355 123 521 l-25 61 50 51 c142 144 202 324 165 495 -39
188 -184 340 -355 372 -33 6 -343 10 -817 10 -420 0 -764 2 -764 4 0 2 20 86
45 187 114 471 118 697 19 1004 -61 186 -196 479 -264 573 -59 82 -211 132
-394 131 -62 0 -134 -7 -163 -14z m330 -234 c58 -28 71 -47 138 -206 66 -157
124 -326 155 -450 40 -165 32 -359 -31 -711 -23 -131 -81 -412 -100 -486 l-7
-28 893 0 c721 -1 901 -3 932 -14 55 -20 103 -61 134 -114 25 -42 28 -57 28
-132 0 -68 -5 -94 -24 -132 -38 -79 -95 -134 -176 -173 -85 -41 -99 -63 -66
-104 162 -202 118 -411 -114 -542 -50 -28 -75 -58 -75 -90 0 -5 17 -28 39 -52
59 -65 75 -103 76 -177 0 -54 -6 -77 -33 -133 -42 -85 -113 -158 -189 -194
-54 -27 -58 -31 -61 -66 -3 -34 2 -45 41 -86 53 -57 71 -105 65 -180 -7 -101
-81 -210 -203 -296 -118 -85 -15 -79 -1299 -72 l-1139 6 -66 34 c-36 19 -104
58 -151 86 l-85 51 -112 0 -113 0 0 928 0 927 23 14 c12 7 84 57 161 109 l138
96 119 158 c233 312 487 723 677 1094 l52 100 0 396 0 396 34 21 c66 41 107
51 201 48 70 -2 101 -8 138 -26z m-1775 -2398 l-2 -128 -3 123 -4 122 -779 0
-779 0 -4 -42 -4 -43 -1 48 -2 47 790 0 790 0 -2 -127z m12 -1833 l0 -380
-707 2 -708 3 703 2 702 3 0 375 c0 206 2 375 5 375 3 0 5 -171 5 -380z m-341
139 c56 -31 85 -81 85 -144 0 -97 -69 -165 -169 -165 -57 0 -96 19 -131 65
-65 86 -26 219 76 258 35 13 104 6 139 -14z"/>
</g>
</svg>
