<?xml version="1.0" standalone="no"?>
<!DOCTYPE svg PUBLIC "-//W3C//DTD SVG 20010904//EN"
 "http://www.w3.org/TR/2001/REC-SVG-20010904/DTD/svg10.dtd">
<svg version="1.0" xmlns="http://www.w3.org/2000/svg"
 width="512.000000pt" height="512.000000pt" viewBox="0 0 512.000000 512.000000"
 preserveAspectRatio="xMidYMid meet">
<metadata>
Created by potrace 1.12, written by Peter Selinger 2001-2015
</metadata>
<g transform="translate(0.000000,512.000000) scale(0.100000,-0.100000)"
fill="#000000" stroke="none">
<path d="M520 5113 c-19 -2 -63 -13 -97 -23 -190 -58 -322 -184 -395 -376
l-23 -59 -3 -1560 c-2 -1042 1 -1583 8 -1630 16 -107 77 -224 160 -306 78 -77
128 -109 231 -146 73 -27 77 -27 382 -31 l307 -3 0 -468 c0 -453 1 -468 20
-486 41 -37 54 -31 260 112 105 74 522 363 610 425 36 25 178 123 315 218 138
95 257 179 266 186 12 11 202 14 1050 16 l1034 3 74 27 c104 39 153 70 231
147 83 82 144 199 160 306 7 47 10 589 8 1630 l-3 1560 -22 58 c-72 188 -199
311 -394 379 l-64 23 -2040 1 c-1122 0 -2056 -1 -2075 -3z m4095 -148 c138
-32 246 -107 304 -210 65 -115 62 -15 59 -1737 l-3 -1565 -39 -77 c-39 -77
-103 -149 -165 -187 -18 -11 -66 -31 -106 -44 l-74 -25 -1110 0 -1110 0 -97
-66 c-53 -36 -121 -83 -152 -105 -55 -39 -260 -182 -617 -429 -91 -63 -170
-116 -175 -118 -6 -2 -10 130 -10 357 l0 360 -412 3 c-457 3 -454 3 -564 73
-74 48 -117 96 -160 182 l-39 76 -3 1555 c-1 1031 1 1574 8 1611 31 168 165
301 350 346 84 21 4028 21 4115 0z"/>
</g>
</svg>
